<svg xmlns="http://www.w3.org/2000/svg" viewBox="0 0 600 450" role="img">
<defs>
<radialGradient id="bg" cx="50%" cy="42%" r="70%"><stop offset="0" stop-color="#2a2e38"/><stop offset="1" stop-color="#0b0b0d"/></radialGradient>
<radialGradient id="glow" cx="50%" cy="50%" r="50%"><stop offset="0" stop-color="#d4a437" stop-opacity=".45"/><stop offset="1" stop-color="#d4a437" stop-opacity="0"/></radialGradient>
<linearGradient id="metal" x1="0" y1="0" x2="1" y2="1"><stop offset="0" stop-color="#f4f6fa"/><stop offset=".45" stop-color="#9aa3b2"/><stop offset="1" stop-color="#4a505c"/></linearGradient>
<linearGradient id="metal2" x1="0" y1="0" x2="0" y2="1"><stop offset="0" stop-color="#e7eaf0"/><stop offset=".5" stop-color="#7c8493"/><stop offset="1" stop-color="#2d3139"/></linearGradient>
<linearGradient id="dark" x1="0" y1="0" x2="1" y2="1"><stop offset="0" stop-color="#3a3d45"/><stop offset="1" stop-color="#121316"/></linearGradient>
<linearGradient id="red" x1="0" y1="0" x2="0" y2="1"><stop offset="0" stop-color="#ff5a4d"/><stop offset="1" stop-color="#9c1d14"/></linearGradient>
<linearGradient id="gold" x1="0" y1="0" x2="1" y2="1"><stop offset="0" stop-color="#ffe49a"/><stop offset=".5" stop-color="#d4a437"/><stop offset="1" stop-color="#7a5a14"/></linearGradient>
</defs>
<rect width="600" height="450" fill="url(#bg)"/>
<ellipse cx="300" cy="215" rx="250" ry="190" fill="url(#glow)"/>
<ellipse cx="300" cy="392" rx="190" ry="20" fill="#000" opacity=".55"/>
<g transform="translate(230 255) rotate(-6)"><path d="M-150 -55 Q0 -110 150 -55 L150 40 Q0 -15 -150 40 Z" fill="url(#metal2)"/><path d="M-150 40 Q0 -15 150 40 L146 78 Q0 24 -146 78 Z" fill="#2b2118" stroke="#8a6a3b" stroke-width="2"/><path d="M-120 12 Q0 -36 120 12" fill="none" stroke="#0d0e10" stroke-width="5" opacity=".6"/><circle cx="-110" cy="-22" r="9" fill="#101114"/><circle cx="110" cy="-22" r="9" fill="#101114"/></g><g transform="translate(360 195) rotate(-6)"><path d="M-150 -55 Q0 -110 150 -55 L150 40 Q0 -15 -150 40 Z" fill="url(#metal2)"/><path d="M-150 40 Q0 -15 150 40 L146 78 Q0 24 -146 78 Z" fill="#2b2118" stroke="#8a6a3b" stroke-width="2"/><path d="M-120 12 Q0 -36 120 12" fill="none" stroke="#0d0e10" stroke-width="5" opacity=".6"/><circle cx="-110" cy="-22" r="9" fill="#101114"/><circle cx="110" cy="-22" r="9" fill="#101114"/></g>
</svg>