<svg xmlns="http://www.w3.org/2000/svg" viewBox="0 0 600 450" role="img">
<defs>
<radialGradient id="bg" cx="50%" cy="42%" r="70%"><stop offset="0" stop-color="#2a2e38"/><stop offset="1" stop-color="#0b0b0d"/></radialGradient>
<radialGradient id="glow" cx="50%" cy="50%" r="50%"><stop offset="0" stop-color="#f08a1c" stop-opacity=".45"/><stop offset="1" stop-color="#f08a1c" stop-opacity="0"/></radialGradient>
<linearGradient id="metal" x1="0" y1="0" x2="1" y2="1"><stop offset="0" stop-color="#f4f6fa"/><stop offset=".45" stop-color="#9aa3b2"/><stop offset="1" stop-color="#4a505c"/></linearGradient>
<linearGradient id="metal2" x1="0" y1="0" x2="0" y2="1"><stop offset="0" stop-color="#e7eaf0"/><stop offset=".5" stop-color="#7c8493"/><stop offset="1" stop-color="#2d3139"/></linearGradient>
<linearGradient id="dark" x1="0" y1="0" x2="1" y2="1"><stop offset="0" stop-color="#3a3d45"/><stop offset="1" stop-color="#121316"/></linearGradient>
<linearGradient id="red" x1="0" y1="0" x2="0" y2="1"><stop offset="0" stop-color="#ff5a4d"/><stop offset="1" stop-color="#9c1d14"/></linearGradient>
<linearGradient id="gold" x1="0" y1="0" x2="1" y2="1"><stop offset="0" stop-color="#ffe49a"/><stop offset=".5" stop-color="#d4a437"/><stop offset="1" stop-color="#7a5a14"/></linearGradient>
</defs>
<rect width="600" height="450" fill="url(#bg)"/>
<ellipse cx="300" cy="215" rx="250" ry="190" fill="url(#glow)"/>
<ellipse cx="300" cy="392" rx="190" ry="20" fill="#000" opacity=".55"/>
<ellipse cx="300" cy="345" rx="118" ry="26" fill="#1a1b1f"/><rect x="182" y="105" width="236" height="240" rx="14" fill="url(#metal2)"/><rect x="182" y="105" width="236" height="240" rx="14" fill="none" stroke="#fff" stroke-opacity=".25" stroke-width="2"/><ellipse cx="300" cy="105" rx="118" ry="30" fill="url(#metal)"/><ellipse cx="300" cy="105" rx="82" ry="20" fill="#2a2d34"/><ellipse cx="300" cy="105" rx="30" ry="8" fill="#0b0c0e"/><rect x="182" y="170" width="236" height="96" fill="#f08a1c"/><rect x="182" y="170" width="236" height="96" fill="url(#metal2)" opacity=".22"/><text x="300" y="228" font-family="Archivo,Arial,sans-serif" font-weight="800" font-size="46" text-anchor="middle" fill="#14110c" letter-spacing="3">VELORA</text><rect x="182" y="326" width="236" height="20" fill="#1c1d22"/><rect x="204" y="280" width="6" height="40" rx="3" fill="#fff" opacity=".35"/>
</svg>